<svg xmlns="http://www.w3.org/2000/svg" xmlns:xlink="http://www.w3.org/1999/xlink" viewBox="2093.376 568.364 409.766 409.739">
  <defs>
    <style>
      .cls-1 {
        fill: url(#linear-gradient);
      }
    </style>
    <linearGradient id="linear-gradient" x1="-0.079" y1="0.185" x2="1.081" y2="0.183" gradientUnits="objectBoundingBox">
      <stop offset="0" stop-color="#f45b68"/>
      <stop offset="1" stop-color="#fff275"/>
    </linearGradient>
  </defs>
  <g id="Layer_2" transform="matrix(-0.921, 0.391, -0.391, -0.921, 4015.759, -192.373)">
    <path id="path" class="cls-1" d="M474.52,551.5s15.141,36.226,61.986,16.106c0,0,6.046,40.189,48.877,29.469,0,0-6.554,47.353,34.753,51.418,0,0-24.185,42.425,11.584,59.6,0,0-32.263,25.251-10.568,60.614,0,0-41.307,2.54-35.769,51.519,0,0-39.376-14.633-48.928,32.161,0,0-33.686-28.2-59.344,11.584,0,0-21.8-45.27-64.475-11.076,0,0,5.894-46.794-47.556-32.67,0,0,14.633-48.471-34.3-51.519,0,0,25.709-33.838-11.584-59.6,0,0,36.277-26.268,12.6-60.614,0,0,37.293-7.57,33.279-52.535,0,0,39.986,9.806,47.15-28.351.254-1.321.457-2.642.61-4.065C412.94,563.542,448.3,593.925,474.52,551.5Zm-.3,13.362a52.665,52.665,0,0,1-12.7,11.025,40.181,40.181,0,0,1-25.048,5.589,52.291,52.291,0,0,1-18.392-5.64c-3.76,13.058-13.82,22.609-26.573,26.674a54.116,54.116,0,0,1-15.344,2.185c-1.016,0-2.083-.1-3.1-.152a52.755,52.755,0,0,1-19.663,41.612,51.037,51.037,0,0,1-10.416,6.351,44.818,44.818,0,0,1,4.065,26.318c-1.423,9.044-5.538,17.325-11.432,24.743a54.487,54.487,0,0,1-4.522,5.081,52.6,52.6,0,0,1,9.958,11.991,42.849,42.849,0,0,1,6.046,24.845,51.626,51.626,0,0,1-4.217,17.224c15.954,3.709,26.776,14.023,30.688,29.926a57.668,57.668,0,0,1,1.219,15.344c-.051.864-.152,1.728-.254,2.591,9.3-1.372,17.783-.864,26.42,2.9,8.383,3.912,13.921,10.67,16.919,19.154a37.646,37.646,0,0,1,1.677,6.453,46.007,46.007,0,0,1,28.5-6.3c10.162,1.321,18.85,6.4,26.064,13.972a36.13,36.13,0,0,1,3.455,4.065,51.411,51.411,0,0,1,10.974-9.45,39.915,39.915,0,0,1,24.9-6.2,51.048,51.048,0,0,1,18.443,5.335c4.166-12.6,12.956-22.965,25.455-27.69a44.353,44.353,0,0,1,19.967-2.083,56.216,56.216,0,0,1,5.081-23.88A43.553,43.553,0,0,1,599,768.348a47.737,47.737,0,0,1,10.974-5.03,49.617,49.617,0,0,1-3.506-25.455,53.964,53.964,0,0,1,10.06-24.489,35.1,35.1,0,0,1,3.1-3.912c-8.841-6.808-13.362-15.954-14.836-26.928-.965-9.145.813-18.6,4.217-27.843l.254-.661c-14.531-4.115-23.981-14.836-28.757-28.859a63.978,63.978,0,0,1-3.1-19.1,46.209,46.209,0,0,1-23.016-3.049,40.456,40.456,0,0,1-18.189-15.8,49.182,49.182,0,0,1-4.776-9.7c-10.466,3.353-19.967,4.624-30.84,2.744a45.335,45.335,0,0,1-23.524-12.4A24.445,24.445,0,0,1,474.215,564.862Z" transform="translate(1482.8 -925.5)"/>
    <path id="path-2" data-name="path" class="cls-1" d="M548.182,629.9c36.785.356,65.949,20.577,89.473,47.048,0,0,61.986,65.9-9.095,153.8l-5.436-5.436c17.58-21.543,30.281-47.4,31.806-75.45A98.963,98.963,0,0,0,643.4,699a100.629,100.629,0,0,0-7.977-12.753c-.915-1.27-1.778-2.337-2.54-3.2a10.713,10.713,0,0,0-.813-.915l-.1-.1-.1-.1c-25.709-29.367-52.383-43.085-79.616-44.355-20.984-.965-41.256,5.538-60.055,17.021a132.307,132.307,0,0,0-16.563,11.889c-1.677,1.423-3.15,2.693-4.37,3.861-.406.406-.762.762-1.067,1.016l-.254.254-.051.051-5.487-5.335c17.376-16.665,39.681-29.418,63.357-34.3A127.258,127.258,0,0,1,548.182,629.9Z" transform="translate(1411.373 -964.067)"/>
    <path id="path-3" data-name="path" class="cls-1" d="M406.541,798.6h0l6.554,6.656c-.3,1.829-.152.864-.457,2.9a155.532,155.532,0,0,0-1.321,25.81,128.305,128.305,0,0,0,5.64,34.5c6.4,20.12,18.189,36.531,36.328,48.064,25.912,16.259,57.464,19.561,87.389,18.646l7.215,7.316C508.868,944.469,464.97,940.1,435.146,912,405.322,884.008,398.158,837.366,406.541,798.6Z" transform="translate(1441.44 -1047.054)"/>
  </g>
</svg>
